<?xml version='1.0' encoding='utf-8'?>
<svg xmlns:xlink="http://www.w3.org/1999/xlink" xmlns="http://www.w3.org/2000/svg" version="1.1" baseProfile="full" width="400" height="400">
  <title>VFPt_wire_in</title>
  <desc>VFPt_wire_in
created with VectorFieldPlot 1.3
http://commons.wikimedia.org/wiki/User:Geek3/VectorFieldPlot

about: http://commons.wikimedia.org/wiki/File:VFPt_wire_in.svg
rights: GNU Free Documentation license,
        Creative Commons Attribution ShareAlike license
  </desc>
  <defs>
    <radialGradient id="white_spot" cx="0.65" cy="0.7" r="0.75">
      <stop stop-color="#ffffff" offset="0" stop-opacity="0.7"/>
      <stop stop-color="#ffffff" offset="0.1" stop-opacity="0.5"/>
      <stop stop-color="#ffffff" offset="0.6" stop-opacity="0"/>
      <stop stop-color="#000000" offset="0.6" stop-opacity="0"/>
      <stop stop-color="#000000" offset="0.75" stop-opacity="0.05"/>
      <stop stop-color="#000000" offset="0.85" stop-opacity="0.15"/>
      <stop stop-color="#000000" offset="1" stop-opacity="0.5"/>
    </radialGradient>
    <path id="arrow1" stroke="none" fill="#000000" transform="scale(0.01)" d="M 0.3,0 L -2.2,2.25 L 3.8,0 L -2.2,-2.25 L 0.3,0 Z"/>
  </defs>
  <rect id="background" x="0" y="0" width="400" height="400" fill="#ffffff"/>
  <g id="image" transform="translate(200.0,200.0) scale(100.0,-100.0)">
    <g id="fieldlines" fill="none" stroke="#000000" stroke-width="0.02" stroke-linejoin="round" stroke-linecap="round">
      <g id="fieldline1">
        <path d="M 0.0000,0.1900 L 0.0217,0.1888 L 0.0430,0.1851 L 0.0638,0.1790 L 0.0838,0.1705 L 0.1027,0.1598 L 0.1203,0.1471 L 0.1363,0.1324 L 0.1505,0.1160 L 0.1627,0.0981 L 0.1728,0.0789 L 0.1807,0.0587 L 0.1862,0.0377 L 0.1893,0.0163 L 0.1899,-0.0054 L 0.1881,-0.0270 L 0.1838,-0.0483 L 0.1771,-0.0689 L 0.1680,-0.0887 L 0.1568,-0.1072 L 0.1436,-0.1244 L 0.1285,-0.1400 L 0.1117,-0.1537 L 0.0934,-0.1654 L 0.0740,-0.1750 L 0.0535,-0.1823 L 0.0324,-0.1872 L 0.0109,-0.1897 L -0.0108,-0.1897 L -0.0324,-0.1872 L -0.0535,-0.1823 L -0.0740,-0.1750 L -0.0934,-0.1654 L -0.1117,-0.1537 L -0.1285,-0.1400 L -0.1436,-0.1244 L -0.1568,-0.1072 L -0.1680,-0.0887 L -0.1771,-0.0689 L -0.1838,-0.0483 L -0.1881,-0.0270 L -0.1899,-0.0054 L -0.1893,0.0163 L -0.1862,0.0377 L -0.1807,0.0587 L -0.1728,0.0789 L -0.1627,0.0981 L -0.1505,0.1160 L -0.1363,0.1324 L -0.1203,0.1471 L -0.1027,0.1598 L -0.0838,0.1705 L -0.0638,0.1790 L -0.0430,0.1851 L -0.0217,0.1888 L 0.0000,0.1900 Z"/>
        <g id="arrows1">
          <use xlink:href="#arrow1" transform="translate(-0.0002,0.1871) rotate(-4.35) scale(2.0)"/>
        </g>
      </g>
      <g id="fieldline2">
        <path d="M -0.0000,-0.2696 L -0.0260,-0.2683 L -0.0518,-0.2646 L -0.0771,-0.2583 L -0.1017,-0.2497 L -0.1253,-0.2387 L -0.1477,-0.2255 L -0.1688,-0.2102 L -0.1883,-0.1929 L -0.2061,-0.1738 L -0.2219,-0.1531 L -0.2356,-0.1310 L -0.2472,-0.1077 L -0.2564,-0.0833 L -0.2632,-0.0582 L -0.2676,-0.0325 L -0.2695,-0.0065 L -0.2689,0.0195 L -0.2657,0.0454 L -0.2601,0.0708 L -0.2521,0.0956 L -0.2417,0.1195 L -0.2290,0.1422 L -0.2142,0.1637 L -0.1974,0.1836 L -0.1788,0.2018 L -0.1585,0.2181 L -0.1367,0.2324 L -0.1136,0.2445 L -0.0895,0.2543 L -0.0645,0.2618 L -0.0390,0.2668 L -0.0130,0.2693 L 0.0130,0.2693 L 0.0390,0.2668 L 0.0645,0.2618 L 0.0895,0.2543 L 0.1136,0.2445 L 0.1367,0.2324 L 0.1585,0.2181 L 0.1788,0.2018 L 0.1974,0.1836 L 0.2142,0.1637 L 0.2290,0.1422 L 0.2417,0.1195 L 0.2521,0.0956 L 0.2601,0.0708 L 0.2657,0.0454 L 0.2689,0.0195 L 0.2695,-0.0065 L 0.2676,-0.0325 L 0.2632,-0.0582 L 0.2564,-0.0833 L 0.2472,-0.1077 L 0.2356,-0.1310 L 0.2219,-0.1531 L 0.2061,-0.1738 L 0.1883,-0.1929 L 0.1688,-0.2102 L 0.1477,-0.2255 L 0.1253,-0.2387 L 0.1017,-0.2497 L 0.0771,-0.2583 L 0.0518,-0.2646 L 0.0260,-0.2683 L 0.0000,-0.2696 Z"/>
        <g id="arrows2">
          <use xlink:href="#arrow1" transform="translate(0.0001,-0.2674) rotate(177.11) scale(2.0)"/>
        </g>
      </g>
      <g id="fieldline3">
        <path d="M 0.0000,0.3825 L 0.0312,0.3813 L 0.0622,0.3774 L 0.0927,0.3711 L 0.1227,0.3623 L 0.1518,0.3511 L 0.1799,0.3376 L 0.2068,0.3218 L 0.2323,0.3039 L 0.2563,0.2839 L 0.2786,0.2621 L 0.2991,0.2385 L 0.3175,0.2133 L 0.3338,0.1867 L 0.3480,0.1589 L 0.3597,0.1300 L 0.3692,0.1003 L 0.3761,0.0698 L 0.3805,0.0390 L 0.3824,0.0078 L 0.3818,-0.0234 L 0.3786,-0.0544 L 0.3729,-0.0851 L 0.3648,-0.1152 L 0.3541,-0.1446 L 0.3412,-0.1730 L 0.3260,-0.2002 L 0.3085,-0.2261 L 0.2891,-0.2505 L 0.2677,-0.2732 L 0.2446,-0.2941 L 0.2198,-0.3131 L 0.1935,-0.3300 L 0.1660,-0.3446 L 0.1373,-0.3570 L 0.1078,-0.3670 L 0.0775,-0.3746 L 0.0467,-0.3797 L 0.0156,-0.3822 L -0.0156,-0.3822 L -0.0467,-0.3797 L -0.0775,-0.3746 L -0.1078,-0.3670 L -0.1373,-0.3570 L -0.1660,-0.3446 L -0.1935,-0.3300 L -0.2198,-0.3131 L -0.2446,-0.2941 L -0.2677,-0.2732 L -0.2891,-0.2505 L -0.3086,-0.2261 L -0.3259,-0.2002 L -0.3412,-0.1730 L -0.3541,-0.1446 L -0.3648,-0.1152 L -0.3729,-0.0851 L -0.3786,-0.0544 L -0.3818,-0.0234 L -0.3824,0.0078 L -0.3805,0.0389 L -0.3761,0.0698 L -0.3692,0.1003 L -0.3597,0.1300 L -0.3480,0.1589 L -0.3338,0.1867 L -0.3175,0.2133 L -0.2991,0.2385 L -0.2786,0.2621 L -0.2563,0.2839 L -0.2324,0.3039 L -0.2068,0.3218 L -0.1799,0.3376 L -0.1518,0.3511 L -0.1226,0.3623 L -0.0927,0.3711 L -0.0621,0.3774 L -0.0312,0.3813 L 0.0000,0.3825 Z"/>
        <g id="arrows3">
          <use xlink:href="#arrow1" transform="translate(-0.0001,0.3808) rotate(-2.10) scale(2.0)"/>
        </g>
      </g>
      <g id="fieldline4">
        <path d="M -0.0000,-0.5428 L -0.0370,-0.5415 L -0.0739,-0.5377 L -0.1104,-0.5314 L -0.1464,-0.5226 L -0.1818,-0.5114 L -0.2162,-0.4978 L -0.2497,-0.4819 L -0.2820,-0.4638 L -0.3130,-0.4434 L -0.3425,-0.4210 L -0.3705,-0.3967 L -0.3967,-0.3705 L -0.4210,-0.3425 L -0.4434,-0.3130 L -0.4637,-0.2820 L -0.4819,-0.2497 L -0.4978,-0.2162 L -0.5114,-0.1818 L -0.5226,-0.1464 L -0.5314,-0.1104 L -0.5377,-0.0739 L -0.5415,-0.0370 L -0.5428,-0.0000 L -0.5415,0.0370 L -0.5377,0.0739 L -0.5314,0.1104 L -0.5226,0.1464 L -0.5114,0.1818 L -0.4978,0.2162 L -0.4819,0.2497 L -0.4637,0.2820 L -0.4434,0.3130 L -0.4210,0.3425 L -0.3967,0.3705 L -0.3705,0.3967 L -0.3425,0.4210 L -0.3130,0.4434 L -0.2820,0.4638 L -0.2497,0.4819 L -0.2162,0.4978 L -0.1818,0.5114 L -0.1464,0.5226 L -0.1104,0.5314 L -0.0739,0.5377 L -0.0370,0.5415 L 0.0000,0.5428 L 0.0370,0.5415 L 0.0739,0.5377 L 0.1104,0.5314 L 0.1464,0.5226 L 0.1818,0.5114 L 0.2162,0.4978 L 0.2497,0.4819 L 0.2820,0.4638 L 0.3130,0.4434 L 0.3425,0.4210 L 0.3705,0.3967 L 0.3967,0.3705 L 0.4210,0.3425 L 0.4434,0.3130 L 0.4637,0.2820 L 0.4819,0.2497 L 0.4978,0.2162 L 0.5114,0.1818 L 0.5226,0.1464 L 0.5314,0.1104 L 0.5377,0.0739 L 0.5415,0.0370 L 0.5428,0.0000 L 0.5415,-0.0370 L 0.5377,-0.0739 L 0.5314,-0.1104 L 0.5226,-0.1464 L 0.5114,-0.1818 L 0.4978,-0.2162 L 0.4819,-0.2497 L 0.4637,-0.2820 L 0.4434,-0.3130 L 0.4210,-0.3425 L 0.3967,-0.3705 L 0.3705,-0.3967 L 0.3425,-0.4210 L 0.3130,-0.4434 L 0.2820,-0.4638 L 0.2497,-0.4819 L 0.2162,-0.4978 L 0.1818,-0.5114 L 0.1464,-0.5226 L 0.1104,-0.5314 L 0.0739,-0.5377 L 0.0370,-0.5415 L 0.0000,-0.5428 Z"/>
        <g id="arrows4">
          <use xlink:href="#arrow1" transform="translate(0.0000,-0.5415) rotate(178.57) scale(2.0)"/>
          <use xlink:href="#arrow1" transform="translate(-0.0000,0.5415) rotate(-1.43) scale(2.0)"/>
        </g>
      </g>
      <g id="fieldline5">
        <path d="M 0.0000,0.7701 L 0.0444,0.7689 L 0.0886,0.7650 L 0.1325,0.7586 L 0.1760,0.7498 L 0.2189,0.7384 L 0.2611,0.7245 L 0.3024,0.7083 L 0.3427,0.6897 L 0.3819,0.6688 L 0.4197,0.6457 L 0.4563,0.6204 L 0.4912,0.5931 L 0.5246,0.5638 L 0.5562,0.5327 L 0.5860,0.4997 L 0.6138,0.4652 L 0.6396,0.4290 L 0.6632,0.3915 L 0.6847,0.3526 L 0.7038,0.3126 L 0.7207,0.2715 L 0.7351,0.2295 L 0.7471,0.1868 L 0.7567,0.1435 L 0.7637,0.0996 L 0.7681,0.0555 L 0.7701,0.0111 L 0.7694,-0.0333 L 0.7662,-0.0776 L 0.7605,-0.1216 L 0.7522,-0.1652 L 0.7414,-0.2082 L 0.7282,-0.2506 L 0.7126,-0.2921 L 0.6946,-0.3327 L 0.6742,-0.3722 L 0.6517,-0.4104 L 0.6269,-0.4473 L 0.6001,-0.4826 L 0.5713,-0.5164 L 0.5406,-0.5485 L 0.5081,-0.5787 L 0.4739,-0.6070 L 0.4382,-0.6333 L 0.4010,-0.6575 L 0.3624,-0.6795 L 0.3227,-0.6993 L 0.2818,-0.7167 L 0.2401,-0.7318 L 0.1975,-0.7444 L 0.1543,-0.7545 L 0.1106,-0.7621 L 0.0665,-0.7673 L 0.0222,-0.7698 L -0.0222,-0.7698 L -0.0665,-0.7673 L -0.1106,-0.7621 L -0.1543,-0.7545 L -0.1975,-0.7444 L -0.2401,-0.7317 L -0.2818,-0.7167 L -0.3227,-0.6993 L -0.3624,-0.6795 L -0.4010,-0.6575 L -0.4382,-0.6333 L -0.4739,-0.6070 L -0.5081,-0.5787 L -0.5406,-0.5485 L -0.5713,-0.5164 L -0.6001,-0.4826 L -0.6269,-0.4473 L -0.6517,-0.4104 L -0.6742,-0.3722 L -0.6945,-0.3327 L -0.7126,-0.2922 L -0.7282,-0.2506 L -0.7414,-0.2083 L -0.7522,-0.1652 L -0.7605,-0.1216 L -0.7662,-0.0776 L -0.7694,-0.0333 L -0.7701,0.0111 L -0.7681,0.0554 L -0.7637,0.0996 L -0.7567,0.1434 L -0.7471,0.1868 L -0.7351,0.2295 L -0.7207,0.2715 L -0.7039,0.3125 L -0.6847,0.3526 L -0.6632,0.3914 L -0.6396,0.4290 L -0.6138,0.4651 L -0.5860,0.4997 L -0.5562,0.5327 L -0.5246,0.5638 L -0.4913,0.5931 L -0.4563,0.6204 L -0.4198,0.6457 L -0.3819,0.6688 L -0.3427,0.6897 L -0.3024,0.7083 L -0.2611,0.7245 L -0.2189,0.7384 L -0.1760,0.7497 L -0.1325,0.7586 L -0.0886,0.7650 L -0.0444,0.7689 L 0.0000,0.7701 Z"/>
        <g id="arrows5">
          <use xlink:href="#arrow1" transform="translate(-0.0000,0.7692) rotate(-0.87) scale(2.0)"/>
          <use xlink:href="#arrow1" transform="translate(0.0000,-0.7693) rotate(178.74) scale(2.0)"/>
        </g>
      </g>
      <g id="fieldline6">
        <path d="M -0.0000,-1.0927 L -0.0528,-1.0915 L -0.1055,-1.0876 L -0.1579,-1.0813 L -0.2099,-1.0724 L -0.2615,-1.0610 L -0.3125,-1.0471 L -0.3627,-1.0308 L -0.4121,-1.0121 L -0.4605,-0.9910 L -0.5078,-0.9676 L -0.5540,-0.9419 L -0.5988,-0.9140 L -0.6423,-0.8841 L -0.6843,-0.8520 L -0.7246,-0.8179 L -0.7633,-0.7820 L -0.8002,-0.7442 L -0.8352,-0.7046 L -0.8683,-0.6635 L -0.8993,-0.6208 L -0.9283,-0.5766 L -0.9550,-0.5311 L -0.9796,-0.4843 L -1.0018,-0.4364 L -1.0217,-0.3875 L -1.0393,-0.3377 L -1.0544,-0.2871 L -1.0670,-0.2358 L -1.0771,-0.1840 L -1.0848,-0.1317 L -1.0899,-0.0792 L -1.0924,-0.0264 L -1.0924,0.0264 L -1.0899,0.0792 L -1.0848,0.1317 L -1.0771,0.1840 L -1.0670,0.2358 L -1.0544,0.2871 L -1.0393,0.3377 L -1.0217,0.3875 L -1.0018,0.4364 L -0.9796,0.4843 L -0.9550,0.5311 L -0.9282,0.5766 L -0.8993,0.6207 L -0.8683,0.6635 L -0.8352,0.7046 L -0.8002,0.7442 L -0.7633,0.7820 L -0.7246,0.8179 L -0.6843,0.8520 L -0.6423,0.8840 L -0.5988,0.9140 L -0.5540,0.9419 L -0.5078,0.9676 L -0.4605,0.9910 L -0.4121,1.0121 L -0.3627,1.0308 L -0.3125,1.0471 L -0.2615,1.0610 L -0.2099,1.0724 L -0.1579,1.0813 L -0.1055,1.0876 L -0.0528,1.0915 L -0.0000,1.0927 L 0.0528,1.0915 L 0.1055,1.0876 L 0.1579,1.0813 L 0.2099,1.0724 L 0.2615,1.0610 L 0.3125,1.0471 L 0.3627,1.0308 L 0.4121,1.0121 L 0.4605,0.9910 L 0.5078,0.9676 L 0.5540,0.9419 L 0.5988,0.9140 L 0.6423,0.8840 L 0.6843,0.8520 L 0.7246,0.8179 L 0.7633,0.7820 L 0.8002,0.7442 L 0.8352,0.7047 L 0.8683,0.6635 L 0.8993,0.6208 L 0.9282,0.5766 L 0.9550,0.5311 L 0.9796,0.4843 L 1.0018,0.4364 L 1.0217,0.3875 L 1.0393,0.3377 L 1.0544,0.2871 L 1.0670,0.2358 L 1.0771,0.1840 L 1.0848,0.1317 L 1.0899,0.0792 L 1.0924,0.0264 L 1.0924,-0.0264 L 1.0899,-0.0791 L 1.0848,-0.1317 L 1.0771,-0.1840 L 1.0670,-0.2358 L 1.0544,-0.2871 L 1.0393,-0.3377 L 1.0217,-0.3875 L 1.0018,-0.4364 L 0.9796,-0.4843 L 0.9550,-0.5310 L 0.9282,-0.5766 L 0.8993,-0.6207 L 0.8683,-0.6635 L 0.8352,-0.7046 L 0.8002,-0.7442 L 0.7633,-0.7820 L 0.7246,-0.8179 L 0.6843,-0.8520 L 0.6423,-0.8840 L 0.5988,-0.9140 L 0.5540,-0.9419 L 0.5078,-0.9676 L 0.4605,-0.9910 L 0.4121,-1.0121 L 0.3627,-1.0308 L 0.3125,-1.0471 L 0.2615,-1.0610 L 0.2100,-1.0724 L 0.1579,-1.0813 L 0.1055,-1.0876 L 0.0528,-1.0915 L 0.0000,-1.0927 Z"/>
        <g id="arrows6">
          <use xlink:href="#arrow1" transform="translate(0.0000,-1.0920) rotate(179.46) scale(2.0)"/>
          <use xlink:href="#arrow1" transform="translate(-0.9458,0.5460) rotate(59.15) scale(2.0)"/>
          <use xlink:href="#arrow1" transform="translate(0.9457,0.5460) rotate(-60.77) scale(2.0)"/>
        </g>
      </g>
      <g id="fieldline7">
        <path d="M 0.0000,1.5505 L 0.0628,1.5492 L 0.1256,1.5454 L 0.1881,1.5390 L 0.2503,1.5302 L 0.3121,1.5188 L 0.3734,1.5049 L 0.4341,1.4885 L 0.4940,1.4697 L 0.5532,1.4484 L 0.6114,1.4248 L 0.6687,1.3989 L 0.7248,1.3706 L 0.7798,1.3401 L 0.8335,1.3074 L 0.8857,1.2726 L 0.9366,1.2356 L 0.9859,1.1967 L 1.0336,1.1557 L 1.0796,1.1129 L 1.1238,1.0682 L 1.1662,1.0218 L 1.2066,0.9737 L 1.2451,0.9240 L 1.2815,0.8728 L 1.3158,0.8202 L 1.3480,0.7662 L 1.3779,0.7109 L 1.4056,0.6545 L 1.4310,0.5970 L 1.4540,0.5385 L 1.4746,0.4791 L 1.4928,0.4190 L 1.5086,0.3581 L 1.5218,0.2967 L 1.5326,0.2348 L 1.5409,0.1725 L 1.5466,0.1099 L 1.5498,0.0471 L 1.5504,-0.0157 L 1.5485,-0.0785 L 1.5440,-0.1412 L 1.5371,-0.2037 L 1.5275,-0.2658 L 1.5155,-0.3275 L 1.5010,-0.3886 L 1.4840,-0.4491 L 1.4646,-0.5089 L 1.4428,-0.5678 L 1.4186,-0.6259 L 1.3920,-0.6828 L 1.3632,-0.7387 L 1.3322,-0.7933 L 1.2989,-0.8466 L 1.2635,-0.8986 L 1.2261,-0.9491 L 1.1866,-0.9980 L 1.1452,-1.0452 L 1.1019,-1.0908 L 1.0568,-1.1346 L 1.0099,-1.1764 L 0.9614,-1.2164 L 0.9114,-1.2544 L 0.8598,-1.2903 L 0.8068,-1.3241 L 0.7525,-1.3557 L 0.6969,-1.3850 L 0.6402,-1.4122 L 0.5825,-1.4369 L 0.5237,-1.4594 L 0.4642,-1.4794 L 0.4038,-1.4970 L 0.3428,-1.5121 L 0.2813,-1.5248 L 0.2192,-1.5349 L 0.1569,-1.5425 L 0.0942,-1.5476 L 0.0314,-1.5502 L -0.0314,-1.5502 L -0.0942,-1.5476 L -0.1569,-1.5425 L -0.2192,-1.5349 L -0.2813,-1.5248 L -0.3428,-1.5121 L -0.4038,-1.4970 L -0.4642,-1.4794 L -0.5237,-1.4594 L -0.5825,-1.4369 L -0.6402,-1.4122 L -0.6969,-1.3850 L -0.7525,-1.3557 L -0.8068,-1.3241 L -0.8598,-1.2903 L -0.9114,-1.2544 L -0.9614,-1.2164 L -1.0100,-1.1764 L -1.0568,-1.1346 L -1.1019,-1.0908 L -1.1452,-1.0452 L -1.1866,-0.9980 L -1.2261,-0.9491 L -1.2635,-0.8986 L -1.2989,-0.8466 L -1.3322,-0.7933 L -1.3632,-0.7387 L -1.3920,-0.6828 L -1.4186,-0.6259 L -1.4428,-0.5678 L -1.4646,-0.5089 L -1.4840,-0.4491 L -1.5010,-0.3886 L -1.5155,-0.3275 L -1.5275,-0.2658 L -1.5371,-0.2037 L -1.5440,-0.1412 L -1.5485,-0.0785 L -1.5504,-0.0157 L -1.5498,0.0471 L -1.5466,0.1099 L -1.5409,0.1725 L -1.5326,0.2348 L -1.5218,0.2967 L -1.5086,0.3581 L -1.4928,0.4190 L -1.4746,0.4791 L -1.4540,0.5385 L -1.4310,0.5970 L -1.4056,0.6545 L -1.3779,0.7109 L -1.3480,0.7662 L -1.3158,0.8202 L -1.2815,0.8728 L -1.2451,0.9240 L -1.2066,0.9737 L -1.1662,1.0218 L -1.1238,1.0682 L -1.0796,1.1129 L -1.0336,1.1557 L -0.9859,1.1967 L -0.9366,1.2356 L -0.8857,1.2726 L -0.8335,1.3074 L -0.7798,1.3401 L -0.7248,1.3706 L -0.6687,1.3989 L -0.6114,1.4248 L -0.5532,1.4484 L -0.4940,1.4697 L -0.4341,1.4885 L -0.3734,1.5049 L -0.3121,1.5188 L -0.2503,1.5302 L -0.1881,1.5390 L -0.1256,1.5454 L -0.0628,1.5492 L 0.0000,1.5505 Z"/>
        <g id="arrows7">
          <use xlink:href="#arrow1" transform="translate(-0.0000,1.5499) rotate(-0.45) scale(2.0)"/>
          <use xlink:href="#arrow1" transform="translate(1.4740,0.4789) rotate(-72.45) scale(2.0)"/>
          <use xlink:href="#arrow1" transform="translate(0.9110,-1.2539) rotate(-144.45) scale(2.0)"/>
          <use xlink:href="#arrow1" transform="translate(-0.9110,-1.2539) rotate(143.55) scale(2.0)"/>
          <use xlink:href="#arrow1" transform="translate(-1.4740,0.4789) rotate(71.55) scale(2.0)"/>
        </g>
      </g>
      <g id="fieldline8">
        <path d="M -0.8944,-2.0100 L -0.9609,-1.9791 L -1.0263,-1.9459 L -1.0906,-1.9106 L -1.1537,-1.8732 L -1.2155,-1.8337 L -1.2759,-1.7922 L -1.3350,-1.7487 L -1.3925,-1.7032 L -1.4485,-1.6558 L -1.5029,-1.6066 L -1.5556,-1.5556 L -1.6066,-1.5029 L -1.6558,-1.4485 L -1.7032,-1.3925 L -1.7487,-1.3350 L -1.7922,-1.2759 L -1.8337,-1.2155 L -1.8732,-1.1537 L -1.9106,-1.0906 L -1.9459,-1.0263 L -1.9791,-0.9609 L -2.0100,-0.8944 M -2.0100,0.8944 L -1.9791,0.9609 L -1.9459,1.0263 L -1.9106,1.0906 L -1.8732,1.1537 L -1.8337,1.2155 L -1.7922,1.2759 L -1.7487,1.3350 L -1.7032,1.3925 L -1.6558,1.4485 L -1.6066,1.5029 L -1.5556,1.5556 L -1.5029,1.6066 L -1.4485,1.6558 L -1.3925,1.7032 L -1.3350,1.7487 L -1.2759,1.7922 L -1.2155,1.8337 L -1.1537,1.8732 L -1.0906,1.9106 L -1.0263,1.9459 L -0.9609,1.9791 L -0.8944,2.0100 M 0.8944,2.0100 L 0.9609,1.9791 L 1.0263,1.9459 L 1.0906,1.9106 L 1.1537,1.8732 L 1.2155,1.8337 L 1.2759,1.7922 L 1.3350,1.7487 L 1.3925,1.7032 L 1.4485,1.6558 L 1.5029,1.6066 L 1.5556,1.5556 L 1.6066,1.5029 L 1.6558,1.4485 L 1.7032,1.3925 L 1.7487,1.3350 L 1.7922,1.2759 L 1.8337,1.2155 L 1.8732,1.1537 L 1.9106,1.0906 L 1.9459,1.0263 L 1.9791,0.9609 L 2.0100,0.8944 M 2.0100,-0.8944 L 1.9791,-0.9609 L 1.9459,-1.0263 L 1.9106,-1.0906 L 1.8732,-1.1537 L 1.8337,-1.2155 L 1.7922,-1.2759 L 1.7487,-1.3350 L 1.7032,-1.3925 L 1.6558,-1.4485 L 1.6066,-1.5029 L 1.5556,-1.5556 L 1.5029,-1.6066 L 1.4485,-1.6558 L 1.3925,-1.7032 L 1.3350,-1.7487 L 1.2759,-1.7922 L 1.2155,-1.8337 L 1.1537,-1.8732 L 1.0906,-1.9106 L 1.0263,-1.9459 L 0.9609,-1.9791 L 0.8944,-2.0100"/>
        <g id="arrows8">
          <use xlink:href="#arrow1" transform="translate(-1.5553,-1.5553) rotate(134.63) scale(2.0)"/>
          <use xlink:href="#arrow1" transform="translate(-1.5553,1.5553) rotate(44.63) scale(2.0)"/>
          <use xlink:href="#arrow1" transform="translate(1.5553,1.5553) rotate(-45.37) scale(2.0)"/>
          <use xlink:href="#arrow1" transform="translate(1.5553,-1.5553) rotate(-135.37) scale(2.0)"/>
        </g>
      </g>
    </g>
    <g id="symbols">
      <g id="current_in1" transform="translate(0.0,0.0) scale(0.01,0.01)">
        <circle style="fill:#b0b0b0; stroke:none" cx="0" cy="0" r="14"/>
        <circle cx="0" cy="0" r="14" style="fill:url(#white_spot); stroke:#000000; stroke-width:2"/>
        <path d="M 8.5,-11.1 L 11.1,-8.5 L 2.6,0 L 11.1,8.5 L 8.5,11.1 0,2.6 L -8.5,11.1 L -11.1,8.5 L -2.6,0 L -11.1,-8.5 L -8.5,-11.1 L 0,-2.6 L 8.5,-11.1 Z" style="fill:#000000; stroke:none"/>
      </g>
    </g>
  </g>
</svg>
